<?xml version="1.0" standalone="no"?>
<!DOCTYPE svg PUBLIC "-//W3C//DTD SVG 20010904//EN"
 "http://www.w3.org/TR/2001/REC-SVG-20010904/DTD/svg10.dtd">
<svg version="1.0" xmlns="http://www.w3.org/2000/svg"
 width="700.000000pt" height="700.000000pt" viewBox="0 0 700.000000 700.000000"
 preserveAspectRatio="xMidYMid meet">
<metadata>
Created by potrace 1.11, written by Peter Selinger 2001-2013
</metadata>
<g transform="translate(0.000000,700.000000) scale(0.100000,-0.100000)"
fill="#000000" stroke="none">
<path d="M3299 6996 c-2 -2 -40 -6 -84 -9 -79 -6 -199 -20 -265 -32 -19 -3
-48 -8 -65 -11 -58 -9 -220 -45 -268 -59 -26 -8 -48 -14 -50 -14 -2 0 1 1
-122 -36 -279 -85 -601 -239 -885 -423 -302 -196 -617 -492 -847 -797 -333
-440 -549 -927 -652 -1470 -48 -250 -56 -342 -56 -645 1 -266 12 -406 50 -610
3 -14 7 -41 10 -60 12 -71 57 -248 97 -375 148 -478 408 -935 735 -1294 121
-132 290 -292 397 -376 21 -16 47 -38 58 -47 37 -32 199 -144 306 -211 121
-77 373 -206 507 -262 88 -36 392 -140 437 -149 13 -3 73 -16 133 -30 273 -62
452 -81 765 -81 182 1 337 8 395 19 11 2 45 7 75 10 67 8 94 12 250 42 153 29
431 115 615 190 936 384 1668 1171 1987 2139 123 371 172 679 173 1080 0 273
-15 451 -56 660 -6 28 -13 61 -15 75 -3 14 -12 52 -21 85 -8 33 -16 67 -18 76
-2 9 -13 49 -25 89 -12 40 -23 80 -25 89 -5 27 -106 294 -125 331 -29 57 -56
75 -110 75 -59 0 -98 -26 -116 -77 -13 -39 -19 -20 76 -278 72 -196 145 -485
165 -650 3 -25 7 -61 10 -80 26 -205 26 -582 0 -770 -4 -32 -15 -107 -21 -145
-26 -170 -126 -534 -179 -650 -8 -16 -26 -59 -41 -95 -99 -241 -272 -528 -460
-765 -111 -139 -346 -375 -489 -489 -362 -289 -783 -501 -1210 -610 -200 -51
-277 -67 -400 -81 -27 -4 -61 -8 -75 -11 -101 -17 -426 -23 -595 -11 -668 48
-1279 291 -1826 725 -79 62 -343 319 -418 406 -71 82 -205 264 -276 377 -86
135 -239 428 -250 479 -1 3 -9 22 -18 43 -76 175 -176 552 -204 771 -3 23 -6
52 -8 66 -20 131 -26 512 -12 663 56 586 246 1106 580 1587 107 154 209 273
377 440 140 140 211 200 420 358 117 89 414 251 610 335 93 39 324 120 376
132 10 2 64 15 119 29 55 14 115 28 133 31 48 8 84 14 112 20 14 3 43 7 65 10
22 3 56 8 75 10 188 26 581 25 775 -1 294 -39 552 -105 803 -205 68 -27 137
-49 153 -49 42 0 86 28 104 66 34 73 5 132 -88 174 -199 89 -557 197 -752 225
-22 3 -65 10 -96 16 -31 5 -81 12 -110 15 -30 3 -67 8 -84 10 -36 5 -521 14
-526 10z"/>
<path d="M5391 6244 c-34 -28 -51 -77 -43 -120 4 -20 50 -74 143 -169 l137
-141 -8 -44 c-5 -25 -11 -70 -15 -100 -4 -30 -9 -66 -11 -80 -13 -90 -14 -157
-2 -180 21 -39 77 -72 115 -67 71 10 106 54 117 147 16 127 3 127 135 -3 64
-63 126 -120 138 -126 12 -6 71 -11 133 -11 125 0 160 11 185 60 26 50 19 95
-19 138 -33 36 -36 37 -117 41 l-84 3 -89 89 c-49 49 -87 91 -84 94 3 3 40 9
82 15 43 5 89 15 103 22 86 42 88 169 4 213 -31 16 -83 13 -276 -14 l-139 -20
-107 108 c-164 164 -173 171 -224 171 -32 0 -51 -7 -74 -26z"/>
<path d="M3477 6044 c-1 -1 -54 -4 -117 -7 -212 -11 -440 -54 -653 -123 -571
-185 -1049 -565 -1377 -1094 -132 -213 -280 -579 -314 -775 -2 -16 -11 -66
-19 -110 -8 -44 -18 -111 -22 -150 -5 -38 -9 -83 -11 -100 -6 -52 -5 -307 1
-375 56 -627 308 -1173 739 -1605 154 -154 235 -216 506 -394 42 -28 261 -136
335 -165 112 -45 237 -84 365 -116 118 -28 145 -34 230 -45 25 -3 61 -8 80
-11 19 -3 130 -7 245 -9 283 -4 477 20 725 90 874 246 1550 944 1775 1835 15
58 29 116 31 130 19 120 23 146 33 225 11 90 11 419 0 510 -5 39 -12 90 -15
115 -3 25 -16 97 -30 160 -177 823 -747 1503 -1529 1823 -155 64 -397 134
-525 152 -25 3 -72 10 -105 15 -33 5 -109 12 -170 16 -60 3 -125 7 -143 8 -18
1 -33 2 -35 0z"/>
</g>
</svg>
